# Blender v3.0.0 OBJ File: ''
# www.blender.org
mtllib sphere_low_poly.mtl
o Sphere.001
v -0.815832 0.177271 -0.209588
v -0.736780 0.155401 -0.219867
v -0.851302 0.080408 -0.258949
v -0.855271 0.262098 -0.067613
v -0.783490 0.272513 0.028606
v -0.754187 0.268526 -0.029258
v -0.750640 0.245548 -0.117012
v -0.780218 -0.195520 -0.194054
v -0.717476 -0.243690 -0.098407
v -0.804142 -0.242476 -0.129460
v -0.655631 0.068449 -0.223868
v -0.773906 0.000000 -0.275590
v -0.649186 0.175038 -0.150106
v -0.594940 0.084315 -0.161403
v -0.672380 -0.049568 -0.240723
v -0.576168 -0.036778 -0.156659
v -0.614692 -0.127725 -0.156493
v -0.620679 -0.207233 -0.039728
v -0.690182 -0.174425 -0.182315
v -0.542130 0.056318 -0.081237
v -0.676398 0.244640 -0.012889
v -0.570381 -0.131299 -0.072688
v -0.685424 0.229302 -0.096942
v -0.591385 0.175038 -0.040438
v -0.529104 -0.027124 -0.026388
v -0.678268 -0.245319 0.024025
v -0.539017 0.079945 0.026278
v -0.797434 -0.273209 -0.036704
v -0.767889 -0.269024 0.043092
v -0.531675 -0.027346 0.054150
v -0.604982 0.179019 0.073584
v -0.569019 0.079945 0.124553
v -0.566176 -0.063691 0.133482
v -0.559588 -0.129664 0.022994
v -0.632839 -0.179107 0.127327
v -0.723986 -0.243195 0.103955
v -0.654718 0.136291 0.192585
v -0.646975 0.034474 0.227619
v -0.704811 0.247491 0.078760
v -0.729227 0.214633 0.159598
v -0.613735 -0.080225 0.185485
v -0.741437 -0.138350 0.233448
v -0.699101 -0.028352 0.255287
v -0.796050 -0.207298 0.184196
v -0.779268 0.107917 0.254754
v -0.798493 -0.026393 0.275079
v -0.852610 0.243055 0.119478
v -0.844051 -0.265821 0.061927
v -0.865516 -0.084145 0.253555
v -0.902420 -0.139568 0.215263
v -0.897014 0.079086 0.247184
v -0.932242 -0.024832 0.240989
v -0.898970 -0.215362 0.140200
v -0.863999 0.184485 0.195724
v -0.954316 0.129664 0.187993
v -0.847910 0.268526 0.029258
v -0.915826 0.245822 0.047878
v -0.991410 0.181022 0.089475
v -1.018989 -0.000000 0.171753
v -1.026480 0.121502 0.103384
v -1.053268 -0.077899 0.078545
v -0.991940 -0.147045 0.136906
v -1.063414 0.029345 0.077206
v -1.039217 -0.135573 0.014427
v -1.039988 0.132513 -0.044935
v -0.917433 -0.245141 0.045764
v -0.972931 -0.214106 0.022621
v -0.889322 -0.246639 -0.087848
v -1.065240 -0.061962 -0.055433
v -1.003008 -0.174182 -0.066182
v -0.943967 -0.214080 -0.097524
v -1.072950 0.030054 -0.050024
v -1.042751 -0.027014 -0.129015
v -0.990312 -0.134039 -0.147894
v -1.004511 0.031535 -0.182145
v -0.969178 -0.082056 -0.201506
v -0.871580 0.230277 -0.131955
v -0.965260 0.217915 -0.040980
v -0.934753 0.084146 -0.224875
v -0.894112 -0.021000 -0.259637
v -0.886231 -0.157080 -0.212729
v -0.886857 0.173653 -0.196285
v -0.986568 0.157446 -0.133955
v -0.777083 -0.125965 -0.243315
vt 0.759893 0.725021
vt 0.703196 0.688700
vt 0.780670 0.594422
vt 0.853703 0.897083
vt 0.734375 1.000000
vt 0.589220 0.937500
vt 0.681915 0.849900
vt 0.733010 0.250000
vt 0.635678 0.153690
vt 0.752066 0.155949
vt 0.657952 0.579735
vt 0.734375 0.500176
vt 0.624729 0.717498
vt 0.603884 0.599537
vt 0.671875 0.444675
vt 0.597860 0.459741
vt 0.610005 0.346011
vt 0.533197 0.235202
vt 0.658774 0.286298
vt 0.547374 0.564303
vt 0.516713 0.849926
vt 0.547535 0.343092
vt 0.610999 0.812500
vt 0.531041 0.717324
vt 0.515610 0.468779
vt 0.470609 0.149907
vt 0.484345 0.593425
vt 0.730366 0.048064
vt 0.354205 0.062500
vt 0.468726 0.468896
vt 0.443200 0.726295
vt 0.421845 0.593425
vt 0.422440 0.427916
vt 0.484414 0.344178
vt 0.396528 0.279472
vt 0.345815 0.157896
vt 0.352569 0.658936
vt 0.345682 0.539273
vt 0.387289 0.850565
vt 0.314857 0.777390
vt 0.374693 0.406705
vt 0.289311 0.340105
vt 0.311197 0.469849
vt 0.253091 0.229524
vt 0.265149 0.625956
vt 0.251279 0.467960
vt 0.384376 0.962469
vt 0.189866 0.843013
vt 0.133051 0.092964
vt 0.211155 0.400476
vt 0.179174 0.327438
vt 0.193544 0.586276
vt 0.171188 0.472498
vt 0.203125 0.000000
vt 0.152656 0.213524
vt 0.200996 0.728959
vt 0.140665 0.655822
vt 0.092591 0.937500
vt 0.061981 0.851052
vt 0.070711 0.731597
vt 0.108531 0.501594
vt 0.069711 0.639259
vt 0.047645 0.407626
vt 0.098214 0.324586
vt 0.046180 0.532847
vt 0.008271 0.334687
vt 0.000000 0.658651
vt 1.000000 0.125000
vt 0.993047 0.219954
vt 0.874846 0.146677
vt 1.000000 0.875000
vt 0.984375 0.937500
vt 1.000000 0.334687
vt 0.968895 0.426049
vt 0.952020 0.282012
vt 0.908360 0.218118
vt 0.900162 0.027657
vt 0.986986 0.062500
vt 0.973102 0.548179
vt 0.922041 0.466255
vt 0.953125 1.000000
vt 0.895113 0.337227
vt 0.883031 0.535689
vt 0.860089 0.404927
vt 0.828251 0.812500
vt 0.962973 0.792731
vt 0.836155 0.599525
vt 0.803797 0.476875
vt 0.813929 0.311130
vt 0.818831 0.710434
vt 0.896783 0.692686
vt 0.734375 0.348939
vt 0.000000 0.531273
vt 0.057455 0.149472
vt 0.021359 0.219954
vt 0.000000 0.437500
vt 0.000000 0.792731
vt 0.969434 0.656804
vn 0.0089 0.4514 -0.8923
vn -0.0313 0.9959 -0.0845
vn 0.1249 0.7544 -0.6444
vn 0.1798 -0.8262 -0.5340
vn 0.2478 0.2740 -0.9293
vn 0.5875 0.4362 -0.6816
vn 0.6568 0.0145 -0.7539
vn 0.5765 -0.6889 -0.4395
vn 0.8473 0.1110 -0.5194
vn 0.3292 0.9166 -0.2267
vn 0.8222 -0.3491 -0.4496
vn 0.6108 0.7233 -0.3219
vn 0.9397 -0.0729 -0.3341
vn 0.4260 -0.8925 -0.1483
vn 0.9024 0.4147 -0.1173
vn 0.2474 -0.9681 -0.0408
vn 0.9966 0.0765 0.0320
vn 0.8563 0.4453 0.2614
vn 0.9127 -0.3246 0.2482
vn 0.8073 -0.4843 0.3373
vn 0.7042 -0.6900 0.1674
vn 0.4944 -0.8142 0.3044
vn 0.9087 0.0438 0.4152
vn 0.7028 0.2787 0.6545
vn 0.7848 0.0539 0.6174
vn 0.5204 0.7246 0.4517
vn 0.4960 -0.5094 0.7032
vn 0.5804 -0.1273 0.8044
vn 0.4625 -0.3405 0.8186
vn 0.3380 -0.7095 0.6184
vn 0.3384 -0.7077 0.6202
vn 0.3382 -0.7084 0.6195
vn 0.2579 0.5728 0.7780
vn 0.3265 0.7436 -0.5835
vn 0.1962 0.1192 0.9733
vn 0.0699 0.9321 0.3553
vn 0.0219 -0.9051 0.4246
vn -0.0005 -0.3487 0.9372
vn -0.0916 -0.5248 0.8463
vn -0.0917 -0.5240 0.8468
vn -0.0912 -0.5294 0.8434
vn -0.2466 0.0259 0.9688
vn -0.0266 -0.9977 0.0622
vn -0.2387 -0.6888 0.6845
vn -0.3698 0.4986 0.7840
vn -0.4291 -0.3024 0.8512
vn -0.2441 0.9365 0.2517
vn -0.4408 0.7424 0.5045
vn -0.6083 0.2074 0.7661
vn -0.6741 0.5198 0.5248
vn -0.8066 -0.2727 0.5245
vn -0.8579 0.2107 0.4685
vn -0.8221 -0.5009 0.2704
vn -0.8437 0.5242 0.1158
vn -0.4585 -0.8845 -0.0865
vn -0.3262 0.9446 -0.0379
vn -0.8689 -0.4658 -0.1672
vn -0.7621 -0.6466 -0.0326
vn -0.6060 -0.7819 -0.1463
vn -0.2611 -0.9643 -0.0444
vn -0.2531 -0.9663 -0.0472
vn -0.2537 -0.9661 -0.0468
vn -0.9462 -0.0606 -0.3179
vn -0.0623 0.9962 -0.0614
vn -0.8426 -0.3390 -0.4185
vn -0.7402 -0.1174 -0.6621
vn -0.7715 -0.2770 -0.5727
vn -0.4185 0.8518 -0.3152
vn -0.5541 0.0603 -0.8303
vn -0.5364 -0.4903 -0.6869
vn -0.4476 0.7213 -0.5286
vn -0.5003 -0.6498 -0.5722
vn -0.1569 0.7595 -0.6313
vn -0.3224 0.4402 -0.8380
vn -0.0606 0.9007 -0.4301
vn 0.1190 0.3098 -0.9433
vn 0.0341 0.9672 -0.2519
vn 0.3401 -0.4378 -0.8323
vn 0.2360 -0.5687 -0.7880
vn 0.1013 -0.9422 -0.3195
vn 0.3592 0.0818 -0.9297
vn 0.2043 -0.2478 -0.9470
vn 0.7852 0.4841 -0.3861
vn 0.2574 -0.7846 -0.5640
vn 0.4781 0.4801 -0.7355
vn 0.5161 -0.4222 -0.7452
vn 0.6527 -0.2778 -0.7048
vn 0.7044 0.0816 -0.7051
vn 0.5341 -0.7290 -0.4281
vn 0.6823 -0.6201 -0.3872
vn 0.9520 -0.3032 -0.0420
vn 0.2949 0.9339 -0.2021
vn 0.9217 -0.2246 -0.3163
vn 0.5790 0.7888 -0.2061
vn 0.2752 -0.9561 -0.1008
vn 0.9914 0.1187 -0.0548
vn 0.6066 0.7890 0.0977
vn 0.8141 -0.5749 -0.0820
vn 0.2737 0.9598 0.0618
vn 0.8473 0.5246 0.0827
vn 0.6679 -0.7244 0.1706
vn 0.9470 0.1399 0.2891
vn -0.6293 -0.3024 0.7160
vn 0.7152 0.5071 0.4810
vn 0.2886 -0.9384 0.1900
vn 0.7424 -0.0307 0.6692
vn 0.7263 -0.4473 0.5220
vn 0.5297 0.7034 0.4740
vn 0.3384 -0.7075 0.6204
vn 0.3611 0.3279 0.8730
vn 0.2897 0.1741 0.9411
vn 0.1837 -0.2590 0.9483
vn 0.0497 -0.9318 0.3596
vn 0.0818 0.9144 0.3964
vn 0.0581 0.6491 0.7585
vn -0.0147 0.7940 0.6077
vn -0.0912 -0.5300 0.8431
vn -0.1718 0.4752 0.8630
vn -0.1031 0.1632 0.9812
vn -0.0568 0.9616 0.2685
vn -0.2471 -0.0733 0.9662
vn -0.1324 -0.8728 0.4697
vn -0.9417 0.3234 0.0925
vn -0.4826 -0.6273 0.6112
vn -0.4698 0.6978 0.5407
vn -0.5895 0.1525 0.7933
vn -0.5634 -0.7500 0.3466
vn -0.5635 -0.7499 0.3465
vn -0.5636 -0.7499 0.3464
vn -0.3239 -0.8823 0.3415
vn -0.7410 0.2940 0.6037
vn -0.4444 0.7898 0.4229
vn -0.9115 -0.0812 0.4031
vn -0.5637 -0.7499 0.3463
vn -0.7549 -0.6127 0.2340
vn -0.9558 -0.2895 0.0510
vn -0.6163 0.7814 0.0974
vn -0.7529 0.6572 0.0349
vn -0.9930 -0.0905 0.0760
vn -0.8521 0.2914 -0.4347
vn -0.2619 -0.9641 -0.0443
vn -0.3870 0.9192 -0.0734
vn -0.7222 0.6437 -0.2531
vn -0.4926 -0.8621 -0.1189
vn -0.2105 -0.7787 -0.5911
vn -0.8769 0.1622 -0.4524
vn -0.8355 -0.4306 -0.3414
vn -0.6502 -0.6370 -0.4140
vn -0.4866 0.7791 -0.3952
vn -0.5883 -0.0454 -0.8074
vn -0.3530 -0.7562 -0.5510
vn -0.5163 0.4987 -0.6963
vn -0.6662 0.3475 -0.6598
vn -0.3669 0.1611 -0.9162
vn -0.4044 -0.3189 -0.8572
vn -0.1269 -0.2890 -0.9489
vn -0.1033 -0.9464 -0.3061
vn -0.0647 -0.5748 -0.8157
vn -0.1840 0.4990 -0.8469
vn -0.1427 0.0670 -0.9875
vn -0.0314 0.8148 -0.5789
usemtl None
s 1
f 1/1/1 2/2/1 3/3/1
f 4/4/2 5/5/2 6/6/2
f 7/7/3 2/2/3 1/1/3
f 8/8/4 9/9/4 10/10/4
f 2/2/5 11/11/5 12/12/5
f 13/13/6 14/14/6 11/11/6
f 15/15/7 11/11/7 16/16/7
f 17/17/8 18/18/8 19/19/8
f 14/14/9 20/20/9 16/16/9
f 6/6/10 21/21/10 7/7/10
f 16/16/11 22/22/11 17/17/11
f 23/23/12 24/24/12 13/13/12
f 20/20/13 25/25/13 16/16/13
f 18/18/14 26/26/14 9/9/14
f 24/24/15 27/27/15 20/20/15
f 28/28/16 26/26/16 29/29/16
f 27/27/17 30/30/17 25/25/17
f 31/31/18 32/32/18 27/27/18
f 30/30/19 33/33/19 34/34/19
f 34/34/20 33/33/20 35/35/20
f 34/34/21 35/35/21 18/18/21
f 26/26/22 35/35/22 36/36/22
f 32/32/23 33/33/23 30/30/23
f 32/32/24 37/37/24 38/38/24
f 32/32/25 38/38/25 33/33/25
f 39/39/26 40/40/26 31/31/26
f 35/35/27 41/41/27 42/42/27
f 41/41/28 38/38/28 43/43/28
f 43/43/29 42/42/29 41/41/29
f 42/42/30 44/44/31 35/35/32
f 40/40/33 45/45/33 37/37/33
f 13/13/34 2/2/34 7/7/34 23/23/34
f 45/45/35 46/46/35 43/43/35
f 5/47/36 47/48/36 39/39/36
f 44/44/37 48/49/37 36/36/37
f 46/46/38 49/50/38 42/42/38
f 42/42/39 49/50/40 50/51/41
f 51/52/42 52/53/42 46/46/42
f 28/54/43 29/29/43 48/49/43
f 50/51/44 53/55/44 44/44/44
f 54/56/45 55/57/45 51/52/45
f 52/53/46 50/51/46 49/50/46
f 56/58/47 57/59/47 47/48/47
f 54/56/48 47/48/48 58/60/48
f 51/52/49 55/57/49 59/61/49
f 55/57/50 58/60/50 60/62/50
f 59/61/51 61/63/51 62/64/51
f 59/61/52 60/62/52 63/65/52
f 62/64/53 61/63/53 64/66/53
f 58/60/54 65/67/54 60/62/54
f 66/68/55 67/69/55 68/70/55
f 57/71/56 56/72/56 4/4/56
f 64/73/57 69/74/57 70/75/57
f 64/73/58 70/75/58 67/69/58
f 70/75/59 71/76/59 67/69/59
f 68/70/60 28/77/61 48/78/62
f 72/79/63 73/80/63 69/74/63
f 56/72/64 5/81/64 4/4/64
f 73/80/65 74/82/65 69/74/65
f 73/80/66 75/83/66 76/84/66
f 73/80/67 76/84/67 74/82/67
f 4/4/68 77/85/68 78/86/68
f 75/83/69 79/87/69 80/88/69
f 74/82/70 76/84/70 81/89/70
f 77/85/71 82/90/71 83/91/71
f 74/82/72 81/89/72 71/76/72
f 77/85/73 1/1/73 82/90/73
f 82/90/74 3/3/74 79/87/74
f 77/85/75 4/4/75 7/7/75
f 3/3/76 2/2/76 12/12/76
f 4/4/77 6/6/77 7/7/77
f 84/92/78 15/15/78 19/19/78
f 8/8/79 84/92/79 19/19/79
f 10/10/80 9/9/80 28/28/80
f 12/12/81 11/11/81 15/15/81
f 84/92/82 12/12/82 15/15/82
f 20/20/83 14/14/83 13/13/83 24/24/83
f 8/8/84 19/19/84 9/9/84
f 2/2/85 13/13/85 11/11/85
f 19/19/86 15/15/86 17/17/86
f 15/15/87 16/16/87 17/17/87
f 16/16/88 11/11/88 14/14/88
f 9/9/89 19/19/89 18/18/89
f 18/18/90 17/17/90 22/22/90
f 34/34/91 22/22/91 25/25/91 30/30/91
f 7/7/92 21/21/92 23/23/92
f 16/16/93 25/25/93 22/22/93
f 24/24/94 23/23/94 21/21/94
f 28/28/95 9/9/95 26/26/95
f 20/20/96 27/27/96 25/25/96
f 31/31/97 24/24/97 21/21/97 39/39/97
f 22/22/98 34/34/98 18/18/98
f 39/39/99 21/21/99 6/6/99 5/47/99
f 24/24/100 31/31/100 27/27/100
f 18/18/101 35/35/101 26/26/101
f 27/27/102 32/32/102 30/30/102
f 62/64/103 50/51/103 52/53/103 59/61/103
f 31/31/104 37/37/104 32/32/104
f 29/29/105 26/26/105 36/36/105
f 33/33/106 38/38/106 41/41/106
f 33/33/107 41/41/107 35/35/107
f 31/31/108 40/40/108 37/37/108
f 36/36/109 35/35/32 44/44/31
f 38/38/110 37/37/110 45/45/110
f 38/38/111 45/45/111 43/43/111
f 43/43/112 46/46/112 42/42/112
f 29/29/113 36/36/113 48/49/113
f 40/40/114 39/39/114 47/48/114
f 40/40/115 54/56/115 45/45/115
f 54/56/116 40/40/116 47/48/116
f 42/42/39 50/51/41 44/44/117
f 45/45/118 54/56/118 51/52/118
f 45/45/119 51/52/119 46/46/119
f 5/47/120 56/58/120 47/48/120
f 49/50/121 46/46/121 52/53/121
f 48/49/122 44/44/122 53/55/122
f 65/67/123 72/93/123 63/65/123 60/62/123
f 50/51/124 62/64/124 53/55/124
f 55/57/125 54/56/125 58/60/125
f 52/53/126 51/52/126 59/61/126
f 53/55/127 62/64/128 66/94/129
f 48/49/130 53/55/130 66/94/130
f 59/61/131 55/57/131 60/62/131
f 58/60/132 47/48/132 57/59/132
f 59/61/133 63/65/133 61/63/133
f 62/64/128 67/95/134 66/94/129
f 62/64/135 64/66/135 67/95/135
f 61/63/136 69/96/136 64/66/136
f 58/60/137 57/59/137 78/97/137
f 58/60/138 78/97/138 65/67/138
f 72/93/139 69/96/139 61/63/139 63/65/139
f 83/91/140 75/83/140 72/79/140 65/98/140
f 66/68/141 68/70/60 48/78/62
f 57/71/142 4/4/142 78/86/142
f 78/86/143 83/91/143 65/98/143
f 68/70/144 67/69/144 71/76/144
f 10/10/145 68/70/145 81/89/145 8/8/145
f 72/79/146 75/83/146 73/80/146
f 70/75/147 69/74/147 74/82/147
f 70/75/148 74/82/148 71/76/148
f 78/86/149 77/85/149 83/91/149
f 75/83/150 80/88/150 76/84/150
f 68/70/151 71/76/151 81/89/151
f 83/91/152 82/90/152 79/87/152
f 75/83/153 83/91/153 79/87/153
f 79/87/154 3/3/154 80/88/154
f 76/84/155 80/88/155 81/89/155
f 84/92/156 81/89/156 80/88/156 12/12/156
f 28/77/157 68/70/157 10/10/157
f 81/89/158 84/92/158 8/8/158
f 3/3/159 82/90/159 1/1/159
f 80/88/160 3/3/160 12/12/160
f 1/1/161 77/85/161 7/7/161
